<?xml version="1.0" encoding="UTF-8" standalone="no"?>
<!-- Created with Inkscape (http://www.inkscape.org/) -->

<svg
   xmlns:dc="http://purl.org/dc/elements/1.1/"
   xmlns:cc="http://creativecommons.org/ns#"
   xmlns:rdf="http://www.w3.org/1999/02/22-rdf-syntax-ns#"
   xmlns:svg="http://www.w3.org/2000/svg"
   xmlns="http://www.w3.org/2000/svg"
   xmlns:sodipodi="http://sodipodi.sourceforge.net/DTD/sodipodi-0.dtd"
   xmlns:inkscape="http://www.inkscape.org/namespaces/inkscape"
   width="13.64018"
   height="14.96036"
   id="svg3013"
   version="1.1"
   inkscape:version="0.48.1 "
   sodipodi:docname="Новый документ 2">
  <defs
     id="defs3015" />
  <sodipodi:namedview
     id="base"
     pagecolor="#ffffff"
     bordercolor="#666666"
     borderopacity="1.0"
     inkscape:pageopacity="0.0"
     inkscape:pageshadow="2"
     inkscape:zoom="15.775022"
     inkscape:cx="6.8200898"
     inkscape:cy="7.4801798"
     inkscape:document-units="px"
     inkscape:current-layer="layer1"
     showgrid="false"
     fit-margin-top="0"
     fit-margin-left="0"
     fit-margin-right="0"
     fit-margin-bottom="0"
     inkscape:window-width="616"
     inkscape:window-height="472"
     inkscape:window-x="81"
     inkscape:window-y="84"
     inkscape:window-maximized="0" />
  <metadata
     id="metadata3018">
    <rdf:RDF>
      <cc:Work
         rdf:about="">
        <dc:format>image/svg+xml</dc:format>
        <dc:type
           rdf:resource="http://purl.org/dc/dcmitype/StillImage" />
        <dc:title></dc:title>
      </cc:Work>
    </rdf:RDF>
  </metadata>
  <g
     inkscape:label="Layer 1"
     inkscape:groupmode="layer"
     id="layer1"
     transform="translate(-67.465624,217.97514)">
    <path
       style="font-size:20px;font-style:normal;font-variant:normal;font-weight:normal;font-stretch:normal;line-height:125%;letter-spacing:0px;word-spacing:0px;fill:#000000;fill-opacity:1;stroke:none;font-family:Old Standard TT;-inkscape-font-specification:Old Standard TT"
       inkscape:connector-curvature="0"
       id="path3004"
       d="m 68.225514,-208.50492 c -0.50659,-0.52652 -0.75989,-1.18977 -0.75989,-1.98974 0,-0.79996 0.2533,-1.46331 0.75989,-1.99005 0.50659,-0.52673 1.15336,-0.79009 1.94031,-0.7901 l 0.0397,-0.0403 c -0.45329,-0.49315 -0.67993,-1.11978 -0.67993,-1.87988 0,-0.79995 0.25665,-1.4633 0.76996,-1.99005 0.5133,-0.52672 1.15671,-0.79009 1.93024,-0.7901 0.85326,1e-5 1.53991,0.30682 2.05993,0.92041 0.52001,-0.61359 1.20666,-0.9204 2.05994,-0.92041 0.7731,1e-5 1.41641,0.26338 1.92993,0.7901 0.5135,0.52675 0.77025,1.1901 0.77026,1.99005 -1e-5,0.7601 -0.22686,1.38673 -0.68054,1.87988 l 0.0403,0.0403 c 0.78652,1e-5 1.43319,0.26337 1.94,0.7901 0.50678,0.52674 0.76018,1.19009 0.76019,1.99005 -1e-5,0.79997 -0.25341,1.46322 -0.76019,1.98974 -0.50681,0.52654 -1.15348,0.7898 -1.94,0.7898 l -0.0403,0.0403 c 0.45368,0.49317 0.68053,1.1198 0.68054,1.87989 -1e-5,0.79996 -0.25676,1.46331 -0.77026,1.99005 -0.51352,0.52673 -1.15683,0.7901 -1.92993,0.7901 -0.85328,0 -1.53993,-0.30681 -2.05994,-0.92041 -0.52002,0.6136 -1.20667,0.92041 -2.05993,0.92041 -0.77353,0 -1.41694,-0.26337 -1.93024,-0.7901 -0.51331,-0.52674 -0.76996,-1.19009 -0.76996,-1.99005 0,-0.76009 0.22664,-1.38672 0.67993,-1.87989 l -0.0397,-0.0403 c -0.78695,0 -1.43372,-0.26326 -1.94031,-0.7898 z m 2.60987,1.97999 c -0.0199,0.2067 -0.0299,0.45003 -0.0299,0.72998 -1e-5,0.27995 0.01,0.52327 0.0299,0.72998 0.0199,0.2067 0.0567,0.42002 0.11016,0.63995 0.0535,0.21993 0.13021,0.39663 0.23011,0.53009 0.0999,0.13346 0.23986,0.24679 0.41992,0.33997 0.18005,0.0932 0.39001,0.13977 0.62988,0.13977 0.23986,0 0.44982,-0.0466 0.62988,-0.13977 0.18005,-0.0932 0.32013,-0.20651 0.42023,-0.33997 0.10009,-0.13346 0.17679,-0.31352 0.2301,-0.54016 0.0533,-0.22664 0.0899,-0.43996 0.10987,-0.63995 0.0199,-0.19999 0.0299,-0.43996 0.0299,-0.71991 0,-0.27995 -0.01,-0.51992 -0.0299,-0.71991 -0.02,-0.19999 -0.0566,-0.41331 -0.10987,-0.63996 -0.0533,-0.22664 -0.13001,-0.40669 -0.2301,-0.54016 -0.1001,-0.13346 -0.24018,-0.24678 -0.42023,-0.33996 -0.18006,-0.0932 -0.39002,-0.13977 -0.62988,-0.13977 -0.23987,0 -0.44983,0.0466 -0.62988,0.13977 -0.18006,0.0932 -0.32003,0.2065 -0.41992,0.33996 -0.0999,0.13347 -0.1766,0.31017 -0.23011,0.53009 -0.0535,0.21994 -0.0902,0.43325 -0.11016,0.63996 z m 0.93017,1.18042 c -0.12004,-0.12696 -0.18006,-0.2771 -0.18005,-0.45044 -1e-5,-0.17334 0.06,-0.32339 0.18005,-0.45014 0.12003,-0.12675 0.27333,-0.19012 0.4599,-0.19012 0.18656,0 0.33986,0.0634 0.4599,0.19012 0.12003,0.12675 0.18005,0.2768 0.18005,0.45014 0,0.17334 -0.06,0.32338 -0.18005,0.45013 -0.12004,0.12675 -0.27334,0.19013 -0.4599,0.19012 -0.18657,1e-5 -0.33987,-0.0633 -0.4599,-0.18981 z m 4.11987,0 c -0.12004,-0.12696 -0.18006,-0.2771 -0.18005,-0.45044 -1e-5,-0.17334 0.06,-0.32339 0.18005,-0.45014 0.12003,-0.12675 0.27343,-0.19012 0.46021,-0.19012 0.18676,0 0.34006,0.0634 0.4599,0.19012 0.11982,0.12675 0.17974,0.2768 0.17975,0.45014 -10e-6,0.17334 -0.0599,0.32338 -0.17975,0.45013 -0.11984,0.12675 -0.27314,0.19013 -0.4599,0.19012 -0.18678,1e-5 -0.34018,-0.0633 -0.46021,-0.18981 z m -5.05004,-10.58045 c -0.0199,0.20672 -0.0299,0.45005 -0.0299,0.72998 -1e-5,0.27996 0.01,0.52329 0.0299,0.72998 0.0199,0.20672 0.0567,0.42004 0.11016,0.63996 0.0535,0.21994 0.13021,0.39663 0.23011,0.53009 0.0999,0.13347 0.23986,0.24689 0.41992,0.34027 0.18005,0.0934 0.39001,0.14008 0.62988,0.14007 0.23986,10e-6 0.44982,-0.0467 0.62988,-0.14007 0.18005,-0.0934 0.32013,-0.2068 0.42023,-0.34027 0.10009,-0.13346 0.17679,-0.31351 0.2301,-0.54017 0.0533,-0.22663 0.0899,-0.43995 0.10987,-0.63995 0.0199,-0.19998 0.0299,-0.43995 0.0299,-0.71991 0,-0.27993 -0.01,-0.5199 -0.0299,-0.71991 -0.02,-0.19998 -0.0566,-0.41329 -0.10987,-0.63995 -0.0533,-0.22663 -0.13001,-0.40669 -0.2301,-0.54016 -0.1001,-0.13345 -0.24018,-0.24677 -0.42023,-0.33997 -0.18006,-0.0932 -0.39002,-0.13976 -0.62988,-0.13977 -0.23987,1e-5 -0.44983,0.0466 -0.62988,0.13977 -0.18006,0.0932 -0.32003,0.20652 -0.41992,0.33997 -0.0999,0.13347 -0.1766,0.31017 -0.23011,0.53009 -0.0535,0.21994 -0.0902,0.43326 -0.11016,0.63995 z m 0.93017,1.18042 c -0.12004,-0.12694 -0.18006,-0.27709 -0.18005,-0.45044 -1e-5,-0.17333 0.06,-0.32327 0.18005,-0.44983 0.12003,-0.12653 0.27333,-0.1898 0.4599,-0.18982 0.18656,2e-5 0.33986,0.0633 0.4599,0.18982 0.12003,0.12656 0.18005,0.2765 0.18005,0.44983 0,0.17335 -0.06,0.3234 -0.18005,0.45014 -0.12004,0.12676 -0.27334,0.19013 -0.4599,0.19012 -0.18657,1e-5 -0.33987,-0.0633 -0.4599,-0.18982 z m 4.11987,0 c -0.12004,-0.12694 -0.18006,-0.27709 -0.18005,-0.45044 -1e-5,-0.17333 0.06,-0.32327 0.18005,-0.44983 0.12003,-0.12653 0.27343,-0.1898 0.46021,-0.18982 0.18676,2e-5 0.34006,0.0633 0.4599,0.18982 0.11982,0.12656 0.17974,0.2765 0.17975,0.44983 -10e-6,0.17335 -0.0599,0.3234 -0.17975,0.45014 -0.11984,0.12676 -0.27314,0.19013 -0.4599,0.19012 -0.18678,1e-5 -0.34018,-0.0633 -0.46021,-0.18982 z m -2.05017,4.70947 c -0.12655,-0.12003 -0.18982,-0.27333 -0.18982,-0.4599 0,-0.18655 0.0634,-0.33985 0.19013,-0.4599 0.12674,-0.12002 0.27679,-0.18004 0.45013,-0.18005 0.17333,1e-5 0.32328,0.06 0.44983,0.18005 0.12654,0.12005 0.18981,0.27335 0.18982,0.4599 -10e-6,0.18657 -0.0633,0.33987 -0.18982,0.4599 -0.12655,0.12005 -0.2765,0.18006 -0.44983,0.18006 -0.17334,0 -0.32349,-0.06 -0.45044,-0.18006 z m 4.11988,0 c -0.12656,-0.12003 -0.18983,-0.27333 -0.18982,-0.4599 -1e-5,-0.18655 0.0634,-0.33985 0.19012,-0.4599 0.12674,-0.12002 0.27678,-0.18004 0.45014,-0.18005 0.17332,1e-5 0.32337,0.06 0.45013,0.18005 0.12674,0.12005 0.19011,0.27335 0.19012,0.4599 -1e-5,0.18657 -0.0634,0.33987 -0.19012,0.4599 -0.12676,0.12005 -0.27681,0.18006 -0.45013,0.18006 -0.17336,0 -0.3235,-0.06 -0.45044,-0.18006 z m -9.18946,-1.18957 c -0.0134,0.2063 -0.0201,0.44953 -0.0201,0.72967 0,0.28016 0.007,0.52359 0.0201,0.73029 0.0134,0.20671 0.05,0.42003 0.10987,0.63995 0.0598,0.21994 0.13976,0.39989 0.23986,0.53986 0.1001,0.13998 0.23682,0.2533 0.41016,0.33996 0.17334,0.0867 0.38665,0.13001 0.63995,0.13001 0.2533,0 0.46661,-0.0433 0.63996,-0.13001 0.17333,-0.0867 0.31005,-0.19998 0.41015,-0.33996 0.1001,-0.13997 0.18015,-0.31992 0.24018,-0.53986 0.06,-0.21992 0.0966,-0.43324 0.10986,-0.63995 0.0132,-0.2067 0.0198,-0.45013 0.0198,-0.73029 -1e-5,-0.28014 -0.007,-0.52347 -0.0198,-0.72998 -0.0132,-0.20649 -0.0499,-0.41981 -0.10986,-0.63995 -0.06,-0.22013 -0.14008,-0.40018 -0.24018,-0.54016 -0.1001,-0.13997 -0.23682,-0.25329 -0.41015,-0.33997 -0.17335,-0.0867 -0.38666,-0.12999 -0.63996,-0.13 -0.2533,1e-5 -0.46661,0.0433 -0.63995,0.13 -0.17334,0.0867 -0.31006,0.2 -0.41016,0.33997 -0.1001,0.13998 -0.18005,0.32003 -0.23986,0.54016 -0.0598,0.22014 -0.0964,0.43356 -0.10987,0.64026 z m 0.94971,1.18957 c -0.12655,-0.12003 -0.18982,-0.27333 -0.18982,-0.4599 0,-0.18655 0.0634,-0.33985 0.19013,-0.4599 0.12674,-0.12002 0.27679,-0.18004 0.45013,-0.18005 0.17334,1e-5 0.32328,0.06 0.44983,0.18005 0.12654,0.12005 0.18981,0.27335 0.18982,0.4599 -1e-5,0.18657 -0.0633,0.33987 -0.18982,0.4599 -0.12655,0.12005 -0.27649,0.18006 -0.44983,0.18006 -0.17334,0 -0.32349,-0.06 -0.45044,-0.18006 z m 5.23987,3.52051 c -0.02,0.19979 -0.0299,0.43966 -0.0299,0.71961 -1e-5,0.27995 0.0101,0.51992 0.0302,0.71991 0.0201,0.19999 0.0569,0.41331 0.11017,0.63995 0.0533,0.22664 0.1299,0.4067 0.2298,0.54016 0.0999,0.13346 0.23986,0.24679 0.41992,0.33997 0.18005,0.0932 0.39011,0.13977 0.63019,0.13977 0.24006,0 0.45002,-0.0466 0.62988,-0.13977 0.17984,-0.0932 0.31982,-0.20651 0.41992,-0.33997 0.10009,-0.13346 0.17679,-0.31352 0.23011,-0.54016 0.0533,-0.22664 0.0899,-0.43996 0.10986,-0.63995 0.0199,-0.19999 0.0299,-0.43996 0.0299,-0.71991 -1e-5,-0.27995 -0.01,-0.51992 -0.0299,-0.71991 -0.0199,-0.19999 -0.0566,-0.41331 -0.10986,-0.63996 -0.0533,-0.22664 -0.13002,-0.40669 -0.23011,-0.54016 -0.1001,-0.13346 -0.24008,-0.24678 -0.41992,-0.33996 -0.17986,-0.0932 -0.38982,-0.13977 -0.62988,-0.13977 -0.24008,0 -0.45014,0.0466 -0.63019,0.13977 -0.18006,0.0932 -0.32004,0.2065 -0.41992,0.33996 -0.0999,0.13347 -0.1765,0.31352 -0.2298,0.54016 -0.0533,0.22665 -0.0901,0.44007 -0.11047,0.64026 z m 0,-9.40002 c -0.02,0.1998 -0.0299,0.43967 -0.0299,0.7196 -1e-5,0.27996 0.0101,0.51993 0.0302,0.71991 0.0201,0.2 0.0569,0.41332 0.11017,0.63995 0.0533,0.22666 0.1299,0.40671 0.2298,0.54017 0.0999,0.13347 0.23986,0.24689 0.41992,0.34027 0.18005,0.0934 0.39011,0.14008 0.63019,0.14007 0.24006,10e-6 0.45002,-0.0467 0.62988,-0.14007 0.17984,-0.0934 0.31982,-0.2068 0.41992,-0.34027 0.10009,-0.13346 0.17679,-0.31351 0.23011,-0.54017 0.0533,-0.22663 0.0899,-0.43995 0.10986,-0.63995 0.0199,-0.19998 0.0299,-0.43995 0.0299,-0.71991 -1e-5,-0.27993 -0.01,-0.5199 -0.0299,-0.71991 -0.0199,-0.19998 -0.0566,-0.41329 -0.10986,-0.63995 -0.0533,-0.22663 -0.13002,-0.40669 -0.23011,-0.54016 -0.1001,-0.13345 -0.24008,-0.24677 -0.41992,-0.33997 -0.17986,-0.0932 -0.38982,-0.13976 -0.62988,-0.13977 -0.24008,1e-5 -0.45014,0.0466 -0.63019,0.13977 -0.18006,0.0932 -0.32004,0.20652 -0.41992,0.33997 -0.0999,0.13347 -0.1765,0.31353 -0.2298,0.54016 -0.0533,0.22666 -0.0901,0.44007 -0.11047,0.64026 z m 0.72998,6.1499 c 0.0134,-0.2067 0.0201,-0.45013 0.0201,-0.73029 -10e-6,-0.28014 -0.007,-0.52347 -0.0198,-0.72998 -0.0132,-0.20649 -0.0498,-0.41981 -0.10986,-0.63995 -0.06,-0.22013 -0.14008,-0.40018 -0.24017,-0.54016 -0.10011,-0.13997 -0.23683,-0.25329 -0.41016,-0.33997 -0.17335,-0.0867 -0.38666,-0.12999 -0.63995,-0.13 -0.25331,1e-5 -0.46662,0.0433 -0.63996,0.13 -0.17334,0.0867 -0.30996,0.2 -0.40985,0.33997 -0.0999,0.13998 -0.17985,0.32003 -0.23987,0.54016 -0.06,0.22014 -0.0967,0.43346 -0.11016,0.63995 -0.0134,0.20651 -0.0202,0.44984 -0.0202,0.72998 0,0.28016 0.007,0.52359 0.0202,0.73029 0.0134,0.20671 0.0501,0.42003 0.11016,0.63995 0.06,0.21994 0.13997,0.39989 0.23987,0.53986 0.0999,0.13998 0.23651,0.2533 0.40985,0.33996 0.17334,0.0867 0.38665,0.13001 0.63996,0.13001 0.25329,0 0.4666,-0.0433 0.63995,-0.13001 0.17333,-0.0867 0.31005,-0.19998 0.41016,-0.33996 0.10009,-0.13997 0.18014,-0.31992 0.24017,-0.53986 0.06,-0.21992 0.0965,-0.43324 0.10956,-0.63995 z m 1.32019,-1.45996 c -0.0134,0.2063 -0.0202,0.44953 -0.0201,0.72967 -1e-5,0.28016 0.007,0.52359 0.0201,0.73029 0.0134,0.20671 0.0501,0.42003 0.11017,0.63995 0.06,0.21994 0.13996,0.39989 0.23987,0.53986 0.0999,0.13998 0.2365,0.2533 0.40985,0.33996 0.17333,0.0867 0.38674,0.13001 0.64026,0.13001 0.25348,0 0.4669,-0.0433 0.64025,-0.13001 0.17333,-0.0867 0.30995,-0.19998 0.40986,-0.33996 0.0999,-0.13997 0.17983,-0.31992 0.23986,-0.53986 0.06,-0.21992 0.0966,-0.43324 0.10987,-0.63995 0.0132,-0.2067 0.0198,-0.45013 0.0198,-0.73029 -1e-5,-0.28014 -0.007,-0.52347 -0.0198,-0.72998 -0.0132,-0.20649 -0.0499,-0.41981 -0.10987,-0.63995 -0.06,-0.22013 -0.13998,-0.40018 -0.23986,-0.54016 -0.0999,-0.13997 -0.23653,-0.25329 -0.40986,-0.33997 -0.17335,-0.0867 -0.38677,-0.12999 -0.64025,-0.13 -0.25352,1e-5 -0.46693,0.0433 -0.64026,0.13 -0.17335,0.0867 -0.30997,0.2 -0.40985,0.33997 -0.0999,0.13998 -0.17987,0.32003 -0.23987,0.54016 -0.06,0.22014 -0.0968,0.43356 -0.11017,0.64026 z" />
  </g>
</svg>
