<?xml version="1.0" encoding="UTF-8" standalone="no"?>
<!DOCTYPE svg PUBLIC "-//W3C//DTD SVG 1.1//EN" "http://www.w3.org/Graphics/SVG/1.1/DTD/svg11.dtd">

<!-- Created with Vectornator (http://vectornator.io/) -->
<svg height="100%" stroke-miterlimit="10" style="fill-rule:nonzero;clip-rule:evenodd;stroke-linecap:round;stroke-linejoin:round;" version="1.1" viewBox="0 0 2000 2000" width="100%" xml:space="preserve" xmlns="http://www.w3.org/2000/svg" xmlns:vectornator="http://vectornator.io" xmlns:xlink="http://www.w3.org/1999/xlink">
<metadata>
<vectornator:setting key="IsTimeLapseWatermarkDisabled" value="false"/>
<vectornator:setting key="UndoHistoryDisabled" value="true"/>
<vectornator:setting key="VNDimensionsVisible" value="true"/>
<vectornator:setting key="VNSnapToGuides" value="true"/>
<vectornator:setting key="WDCMYKEnabledKey" value="false"/>
<vectornator:setting key="WDDisplayWhiteBackground" value="false"/>
<vectornator:setting key="WDDynamicGuides" value="false"/>
<vectornator:setting key="WDGuidesVisible" value="true"/>
<vectornator:setting key="WDIsolateActiveLayer" value="false"/>
<vectornator:setting key="WDOutlineMode" value="false"/>
<vectornator:setting key="WDRulersVisible" value="true"/>
<vectornator:setting key="WDSnapToEdges" value="false"/>
<vectornator:setting key="WDSnapToGrid" value="false"/>
<vectornator:setting key="WDSnapToPoints" value="false"/>
<vectornator:setting key="WDUnits" value="Points"/>
</metadata>
<defs/>
<g id="layer1" vectornator:layerName="layer1">
<path d="M782.664 338.155C840.166 282.829 912.601 255.166 999.967 255.166C1087.33 255.166 1159.78 282.829 1217.3 338.155C1274.83 393.48 1303.59 464.115 1303.59 550.059L1307.99 554.395C1361.85 504.89 1430.29 480.139 1513.3 480.139C1600.66 480.139 1673.11 508.168 1730.64 564.227C1788.16 620.286 1816.92 690.554 1816.92 775.032C1816.92 868.218 1783.42 943.209 1716.4 1000C1783.42 1056.79 1816.92 1131.78 1816.92 1224.97C1816.92 1309.4 1788.16 1379.66 1730.64 1435.74C1673.11 1491.82 1600.66 1519.86 1513.3 1519.86C1430.29 1519.86 1361.85 1495.09 1307.99 1445.54L1303.59 1449.94C1303.59 1535.84 1274.83 1606.46 1217.3 1661.81C1159.78 1717.16 1087.33 1744.83 999.967 1744.83C912.601 1744.83 840.166 1717.16 782.664 1661.81C725.16 1606.46 696.409 1535.84 696.409 1449.94L692.007 1445.54C638.148 1495.09 569.712 1519.86 486.701 1519.86C399.336 1519.86 326.891 1491.82 269.364 1435.74C211.839 1379.66 183.076 1309.4 183.076 1224.97C183.076 1131.78 216.583 1056.79 283.596 1000C216.583 943.209 183.076 868.219 183.076 775.033C183.076 690.554 211.839 620.286 269.364 564.228C326.891 508.168 399.336 480.139 486.701 480.139C569.712 480.139 638.147 504.891 692.007 554.395L696.409 550.059C696.409 464.115 725.16 393.48 782.664 338.155ZM566.426 623.183C543.852 621.01 517.277 619.918 486.703 619.918C456.13 619.917 429.556 621.01 406.981 623.183C384.407 625.357 361.11 629.376 337.091 635.214C313.072 641.057 293.774 649.435 279.199 660.345C264.623 671.255 252.247 686.54 242.07 706.205C231.892 725.869 226.806 748.799 226.806 774.995C226.806 801.191 231.895 824.121 242.07 843.786C252.249 863.449 264.623 878.748 279.199 889.68C293.774 900.611 313.439 908.987 338.191 914.809C362.943 920.63 386.24 924.628 408.081 926.808C429.922 928.982 456.13 930.074 486.703 930.074C517.277 930.074 543.485 928.982 565.326 926.808C587.167 924.624 610.464 920.627 635.217 914.809C659.969 908.988 679.633 900.611 694.209 889.68C708.785 878.748 721.16 863.449 731.337 843.786C741.515 824.121 746.601 801.191 746.601 774.995C746.601 748.799 741.512 725.869 731.337 706.205C721.158 686.54 708.785 671.254 694.209 660.345C679.633 649.435 660.335 641.058 636.317 635.214C612.297 629.371 589.001 625.363 566.426 623.183ZM437.51 724.769C451.376 711.659 467.773 705.104 486.703 705.105C505.634 705.104 522.021 711.658 535.864 724.769C549.707 737.878 556.627 754.62 556.627 774.995C556.627 795.37 549.703 812.112 535.864 825.222C522.021 838.331 505.634 844.885 486.703 844.885C467.773 844.885 451.387 838.333 437.544 825.222C423.701 812.112 416.78 795.37 416.781 774.995C416.78 754.62 423.694 737.878 437.51 724.769ZM437.51 1174.71C451.376 1161.6 467.773 1155.04 486.703 1155.04C505.634 1155.04 522.021 1161.6 535.864 1174.71C549.707 1187.82 556.627 1204.57 556.627 1224.97C556.627 1245.36 549.703 1262.11 535.864 1275.19C522.022 1288.28 505.634 1294.82 486.704 1294.82C467.773 1294.82 451.387 1288.28 437.544 1275.19C423.701 1262.11 416.78 1245.36 416.781 1224.97C416.78 1204.57 423.694 1187.82 437.51 1174.71ZM1593.02 623.183C1570.44 621.01 1543.87 619.918 1513.3 619.918C1482.72 619.917 1456.15 621.01 1433.58 623.183C1411 625.357 1387.7 629.376 1363.68 635.214C1339.66 641.057 1320.37 649.435 1305.79 660.345C1291.22 671.255 1278.83 686.54 1268.63 706.205C1258.43 725.869 1253.33 748.799 1253.33 774.995C1253.33 801.191 1258.43 824.121 1268.63 843.786C1278.83 863.449 1291.22 878.748 1305.79 889.68C1320.37 900.611 1340.03 908.987 1364.78 914.809C1389.54 920.63 1412.83 924.627 1434.67 926.808C1456.52 928.982 1482.72 930.074 1513.3 930.074C1543.87 930.074 1570.08 928.982 1591.92 926.808C1613.76 924.624 1637.06 920.627 1661.81 914.809C1686.56 908.988 1706.23 900.611 1720.8 889.68C1735.38 878.748 1747.75 863.449 1757.93 843.786C1768.11 824.121 1773.19 801.191 1773.2 774.995C1773.19 748.799 1768.11 725.869 1757.93 706.205C1747.75 686.54 1735.38 671.254 1720.8 660.345C1706.23 649.434 1686.93 641.058 1662.91 635.214C1638.89 629.371 1615.59 625.363 1593.02 623.183ZM1464.1 724.769C1477.97 711.659 1494.37 705.104 1513.3 705.105C1532.23 705.104 1548.6 711.658 1562.42 724.769C1576.24 737.877 1583.15 754.62 1583.15 774.995C1583.15 795.37 1576.24 812.112 1562.42 825.222C1548.6 838.33 1532.23 844.885 1513.3 844.885C1494.37 844.885 1477.98 838.333 1464.14 825.222C1450.29 812.112 1443.37 795.37 1443.37 774.995C1443.37 754.62 1450.29 737.877 1464.1 724.769ZM1464.1 1174.71C1477.97 1161.6 1494.37 1155.04 1513.3 1155.04C1532.23 1155.04 1548.6 1161.6 1562.42 1174.71C1576.24 1187.82 1583.15 1204.57 1583.15 1224.97C1583.15 1245.36 1576.24 1262.11 1562.42 1275.19C1548.6 1288.28 1532.23 1294.82 1513.3 1294.82C1494.37 1294.82 1477.98 1288.28 1464.14 1275.19C1450.29 1262.11 1443.37 1245.36 1443.37 1224.97C1443.37 1204.57 1450.29 1187.82 1464.1 1174.71ZM949.775 950.805C962.883 936.984 979.625 930.074 1000 930.074C1020.37 930.074 1037.12 936.998 1050.23 950.838C1063.34 964.68 1069.89 981.067 1069.89 999.998C1069.89 1018.93 1063.34 1035.3 1050.23 1049.12C1037.12 1062.94 1020.37 1069.85 1000 1069.86C979.625 1069.85 962.883 1062.94 949.775 1049.12C936.664 1035.3 930.11 1018.93 930.11 999.998C930.11 981.067 936.663 964.669 949.775 950.805ZM949.775 1400.74C962.883 1386.92 979.625 1380.01 1000 1380.01C1020.37 1380.01 1037.12 1386.94 1050.23 1400.78C1063.34 1414.62 1069.89 1431 1069.89 1449.94C1069.89 1468.87 1063.34 1485.25 1050.23 1499.1C1037.12 1512.94 1020.37 1519.86 1000 1519.86C979.626 1519.86 962.883 1512.94 949.775 1499.1C936.664 1485.25 930.11 1468.87 930.11 1449.94C930.11 1431 936.663 1414.61 949.775 1400.74ZM1079.69 397.147C1057.16 395.683 1030.6 394.951 1000 394.951C969.404 394.951 942.819 395.716 920.245 397.147C897.67 398.61 874.373 402.607 850.355 409.146C826.335 415.677 806.682 424.409 791.396 435.341C776.108 446.273 763.732 461.205 754.268 480.136C744.799 499.066 740.069 522.362 740.069 550.026C740.069 577.689 744.798 600.985 754.268 619.917C763.737 638.847 776.108 653.778 791.396 664.71C806.682 675.642 826.335 684.385 850.355 690.941C874.373 697.493 897.67 701.49 920.245 702.939C942.819 704.38 969.404 705.101 1000 705.101C1030.6 705.1 1057.17 704.336 1079.72 702.939C1102.27 701.497 1125.57 697.489 1149.61 690.941C1173.65 684.388 1193.32 675.642 1208.61 664.71C1223.89 653.778 1236.27 638.847 1245.73 619.917C1255.2 600.985 1259.93 577.689 1259.93 550.026C1259.93 522.362 1255.2 499.066 1245.73 480.136C1236.27 461.205 1223.89 446.273 1208.61 435.341C1193.32 424.409 1173.65 415.678 1149.61 409.146C1125.57 402.615 1102.26 398.618 1079.69 397.147ZM949.775 500.866C962.883 487.045 979.625 480.136 1000 480.136C1020.37 480.136 1037.12 487.06 1050.23 500.9C1063.34 514.742 1069.89 531.129 1069.89 550.06C1069.89 568.99 1063.34 585.366 1050.23 599.186C1037.12 613.006 1020.37 619.916 1000 619.917C979.625 619.916 962.883 613.004 949.775 599.186C936.664 585.366 930.11 568.99 930.11 550.06C930.11 531.129 936.663 514.731 949.775 500.866ZM565.293 1073.12C543.474 1070.94 517.277 1069.86 486.704 1069.86C456.13 1069.86 429.922 1070.96 408.081 1073.15C386.24 1075.35 362.943 1079.37 338.191 1085.19C313.439 1091.01 293.774 1099.37 279.199 1110.28C264.624 1121.19 252.247 1136.48 242.07 1156.14C231.892 1175.81 226.806 1198.75 226.806 1224.97C226.806 1251.19 231.895 1274.12 242.07 1293.76C252.249 1313.4 264.624 1328.69 279.199 1339.62C293.774 1350.55 313.439 1358.93 338.191 1364.75C362.943 1370.57 386.24 1374.57 408.081 1376.75C429.922 1378.92 456.13 1380.01 486.704 1380.01C517.277 1380.01 543.485 1378.92 565.326 1376.75C587.167 1374.57 610.465 1370.57 635.217 1364.75C659.969 1358.93 679.633 1350.55 694.209 1339.62C708.785 1328.69 721.161 1313.4 731.337 1293.76C741.515 1274.12 746.601 1251.19 746.601 1224.97C746.601 1198.75 741.512 1175.81 731.337 1156.14C721.158 1136.48 708.785 1121.19 694.209 1110.28C679.633 1099.37 659.969 1091.01 635.217 1085.19C610.465 1079.37 587.157 1075.35 565.293 1073.12ZM1591.89 1073.12C1570.07 1070.94 1543.87 1069.86 1513.3 1069.86C1482.72 1069.86 1456.52 1070.96 1434.67 1073.15C1412.83 1075.35 1389.54 1079.37 1364.78 1085.19C1340.03 1091.01 1320.37 1099.37 1305.79 1110.28C1291.22 1121.19 1278.83 1136.48 1268.63 1156.14C1258.43 1175.81 1253.33 1198.75 1253.33 1224.97C1253.33 1251.19 1258.43 1274.12 1268.63 1293.76C1278.83 1313.4 1291.22 1328.69 1305.79 1339.62C1320.37 1350.55 1340.03 1358.93 1364.78 1364.75C1389.54 1370.57 1412.83 1374.57 1434.67 1376.75C1456.52 1378.92 1482.72 1380.01 1513.3 1380.01C1543.87 1380.01 1570.08 1378.92 1591.92 1376.75C1613.76 1374.57 1637.06 1370.57 1661.81 1364.75C1686.56 1358.93 1706.23 1350.55 1720.8 1339.62C1735.38 1328.69 1747.75 1313.4 1757.93 1293.76C1768.11 1274.12 1773.19 1251.18 1773.2 1224.97C1773.19 1198.75 1768.11 1175.81 1757.93 1156.14C1747.75 1136.48 1735.38 1121.19 1720.8 1110.28C1706.23 1099.37 1686.56 1091.01 1661.81 1085.19C1637.06 1079.37 1613.75 1075.35 1591.89 1073.12ZM920.245 1152.84C942.819 1154.31 969.404 1155.04 1000 1155.04C1030.6 1155.04 1057.17 1154.27 1079.72 1152.88C1102.27 1151.44 1125.57 1147.44 1149.61 1140.88C1173.65 1134.33 1193.32 1125.58 1208.61 1114.65C1223.89 1103.72 1236.27 1088.78 1245.73 1069.86C1255.2 1050.92 1259.93 1027.63 1259.93 999.965C1259.93 972.301 1255.2 949.005 1245.73 930.074C1236.27 911.143 1223.89 896.223 1208.61 885.314C1193.32 874.403 1173.65 865.672 1149.61 859.117C1125.57 852.564 1102.27 848.556 1079.72 847.086C1057.17 845.623 1030.6 844.88 1000 844.88C969.404 844.88 942.819 845.645 920.245 847.086C897.67 848.55 874.373 852.558 850.355 859.117C826.335 865.67 806.682 874.403 791.396 885.314C776.108 896.224 763.732 911.143 754.268 930.074C744.799 949.005 740.069 972.301 740.069 999.965C740.069 1027.63 744.798 1050.92 754.268 1069.86C763.737 1088.78 776.108 1103.72 791.396 1114.65C806.682 1125.58 826.335 1134.32 850.355 1140.88C874.373 1147.43 897.67 1151.42 920.245 1152.84ZM1079.69 1297.02C1057.16 1295.56 1030.6 1294.82 1000 1294.83C969.404 1294.83 942.819 1295.59 920.245 1297.02C897.67 1298.49 874.373 1302.5 850.355 1309.06C826.335 1315.61 806.682 1324.34 791.396 1335.25C776.108 1346.16 763.732 1361.08 754.268 1380.01C744.799 1398.94 740.069 1422.25 740.069 1449.94C740.069 1477.62 744.798 1500.93 754.268 1519.86C763.737 1538.79 776.108 1553.71 791.396 1564.62C806.682 1575.53 826.335 1584.26 850.355 1590.82C874.373 1597.37 897.67 1601.37 920.245 1602.82C942.819 1604.26 969.404 1604.98 1000 1604.98C1030.6 1604.98 1057.17 1604.21 1079.72 1602.82C1102.27 1601.37 1125.57 1597.37 1149.61 1590.82C1173.65 1584.26 1193.32 1575.53 1208.61 1564.62C1223.89 1553.71 1236.27 1538.79 1245.73 1519.86C1255.2 1500.93 1259.93 1477.62 1259.93 1449.94C1259.93 1422.25 1255.2 1398.94 1245.73 1380.01C1236.27 1361.08 1223.89 1346.16 1208.61 1335.25C1193.32 1324.34 1173.65 1315.61 1149.61 1309.06C1125.57 1302.5 1102.26 1298.48 1079.69 1297.02Z" fill="#000000" fill-rule="evenodd" opacity="1" stroke="none"/>
</g>
</svg>
